PathFileType	4	(X/Y/Z)	D:\TRACE\v60_Jaco2_6-2-23\BothDRS_Motion3_3-v60.trc
DataRate	CameraRate	NumFrames	NumMarkers	Units	OrigDataRate	OrigDataStartFrame	OrigNumFrames
100.00	100.00	      17	9	mm	100.00	3501	      7000
Frame#	Time	front left toe			Front right toe			aft left toe			aft right toe			Arm			FL body			FR body			AL Body			AR Body			
		X1	Y1	Z1	X2	Y2	Z2	X3	Y3	Z3	X4	Y4	Z4	X5	Y5	Z5	X6	Y6	Z6	X7	Y7	Z7	X8	Y8	Z8	X9	Y9	Z9	

3501	35.000	-101.90257	9.04300	-190.16776	285.71301	15.62494	-212.69327	-71.39775	28.67080	418.47357	274.34857	23.60399	430.91632	142.71193	1094.10986	-573.19366	17.95368	510.47006	-370.81512	176.81761	505.90353	-369.97940	21.62830	567.41626	572.50232	174.13089	553.67316	572.83215	
3502	35.010	-101.57996	8.80372	-191.53886	282.90320	20.85729	-209.34601	-68.27605	36.38585	418.79150	274.23022	23.82275	430.87167	142.66957	1094.09229	-572.96106	18.01171	510.72531	-370.78723	176.76744	505.90222	-369.81650	20.80316	568.58801	572.77301	172.14764	554.45447	573.00275	
3503	35.020	-101.98678	8.27105	-190.99211	281.56497	29.94643	-208.89566	-66.07973	44.67094	419.25067	274.13242	24.39565	431.11371	142.96481	1095.12341	-572.17548	17.90078	510.21463	-370.60394	176.81903	505.56815	-369.41953	20.49841	569.46411	572.81726	172.94522	555.31299	573.38470	
3504	35.030	-101.72195	7.76607	-190.51219	281.12659	40.26250	-208.12265	-65.90524	56.10718	419.05804	274.22800	24.21748	430.90390	143.42091	1096.48291	-571.58093	17.66654	509.56488	-370.38028	176.38527	505.07169	-369.23767	19.93056	570.00476	573.30688	172.94083	556.05872	573.62463	
3505	35.040	-101.78773	7.81960	-190.62062	282.35480	51.88736	-208.01018	-67.09253	67.26538	419.33728	274.45035	24.01107	431.04611	143.55157	1097.34827	-570.87408	17.02282	508.93826	-370.08102	175.86588	504.60876	-369.07895	19.95620	570.19281	573.21619	173.02583	556.49847	573.84900	
3506	35.050	-101.90210	7.83424	-190.71379	284.72372	63.57608	-207.01918	-69.16579	78.48351	419.99802	274.44888	23.98922	431.04071	143.29243	1097.37122	-569.97522	16.65306	508.71268	-369.67859	174.69513	504.23981	-368.71405	20.36059	570.14429	573.49792	173.56911	556.29144	574.00073	
3507	35.060	-101.92212	7.58583	-190.51820	285.67200	75.00617	-206.18301	-73.16335	90.38081	420.36807	274.55045	23.94163	431.01373	142.73149	1096.73010	-569.70801	16.28709	508.58316	-369.12027	174.50645	504.16364	-368.51910	20.92793	569.74060	574.03973	173.53102	555.83759	574.21625	
3508	35.070	-101.96439	7.45816	-190.42880	286.91629	86.48109	-205.26497	-75.83514	101.38098	421.07126	274.78452	23.62023	430.92279	141.70712	1095.65051	-570.16974	16.42165	508.32870	-368.48627	174.69519	504.09824	-368.34555	21.77755	569.04303	574.45111	174.24370	555.38348	574.23199	
3509	35.080	-101.97966	7.44103	-190.40317	286.61005	97.51573	-204.73671	-77.76148	112.19272	421.49530	275.11404	23.60185	431.02762	140.77852	1094.35413	-570.51154	15.78170	508.58698	-368.34680	173.69170	504.21814	-367.86163	22.34482	568.74957	574.90454	175.24133	554.85455	574.65533	
3510	35.090	-101.96567	7.43630	-190.30133	285.47827	107.43523	-204.14101	-78.07032	122.33281	422.03305	275.20172	23.58257	431.02603	139.49448	1093.43384	-570.58087	15.60872	508.58783	-367.86609	173.48727	504.18405	-367.26508	22.92758	568.70947	575.62677	175.27390	554.83063	575.32959	
3511	35.100	-101.99840	7.28731	-190.21347	285.58380	116.72324	-203.24416	-77.89326	131.79021	423.14359	275.29068	23.56364	430.99326	138.68341	1092.72668	-570.80164	15.73172	507.85239	-366.87756	173.46666	503.69534	-366.85809	23.34434	568.93707	576.15387	175.86644	555.01324	575.71808	
3512	35.110	-101.97099	7.14362	-190.11417	285.07254	124.59170	-202.60883	-77.37283	140.52368	423.93088	275.50897	23.58874	430.96783	138.28558	1092.29224	-570.58990	15.37627	507.38519	-366.80112	173.78600	502.72775	-366.60764	24.29855	569.24133	576.45764	176.58470	555.37958	575.91260	
3513	35.120	-101.93737	6.95695	-189.90840	287.02118	131.33311	-200.97838	-76.92136	147.72549	424.97342	275.64151	23.60056	430.96814	137.97720	1092.37695	-570.23901	15.18097	506.84677	-366.16415	173.90402	502.28555	-366.49377	25.29919	569.79987	576.78369	177.39201	556.07672	576.26355	
3514	35.130	-101.98935	6.95617	-189.79347	287.80219	134.65479	-199.77441	-77.09532	152.10092	426.45880	275.55914	23.60620	430.99872	138.06302	1092.42151	-569.99512	14.85174	506.27228	-365.09470	173.32805	501.85184	-365.92938	26.06150	570.28973	577.16632	177.18568	556.67023	576.53094	
3515	35.140	-101.96659	7.01777	-189.70663	288.93951	135.58562	-197.57343	-78.32192	154.58919	428.04626	275.65958	23.59460	430.94803	138.33563	1092.30322	-569.72925	14.43736	506.09378	-364.76624	173.36331	501.67709	-365.64890	27.37536	570.75800	577.75323	178.57579	557.28693	576.87476	
3516	35.150	-102.02972	7.09535	-189.62173	288.05466	133.27798	-195.94128	-78.84890	153.30566	430.32736	275.76947	23.59325	430.96661	138.41124	1091.81360	-569.61169	14.37013	506.15045	-364.38120	173.35313	501.57040	-365.17825	28.60940	570.97180	578.36011	179.55083	557.55975	577.14124	
3517	35.160	-102.01440	7.18903	-189.56192	288.06738	129.94701	-194.34254	-78.41946	149.94170	433.18271	275.77191	23.58674	430.95676	138.16292	1091.24133	-569.50262	13.96573	506.46249	-363.57315	173.10172	501.66653	-364.93552	29.93036	571.29663	578.92358	180.17258	557.52069	577.31451	
